HIERARCHY
ROOT hip
{
	OFFSET 0.0000 -2.1274 0.0000
	CHANNELS 6 Xposition Yposition Zposition Zrotation Yrotation Xrotation 
	JOINT abdomen
	{
		OFFSET 0.0000 20.6881 -0.7315
		CHANNELS 3 Zrotation Xrotation Yrotation
		JOINT chest
		{
			OFFSET 0.0000 11.7043 -0.4877
			CHANNELS 3 Zrotation Xrotation Yrotation
			JOINT neck
			{
				OFFSET 0.0000 22.1894 -2.1946
				CHANNELS 3 Zrotation Xrotation Yrotation
				JOINT head
				{
					OFFSET -0.2438 7.0713 1.2192
					CHANNELS 3 Zrotation Xrotation Yrotation
					JOINT lefteye
					{
						OFFSET 4.1453 8.0467 8.0467
						CHANNELS 3 Zrotation Xrotation Yrotation
						End Site
						{
							OFFSET 1.0000 0.0000 0.0000
						}
					}
					JOINT righteye
					{
						OFFSET -3.6576 8.0467 8.0467
						CHANNELS 3 Zrotation Xrotation Yrotation
						End Site
						{
							OFFSET 1.0000 0.0000 0.0000
						}
					}
				}
			}
			JOINT rcollar
			{
				OFFSET -2.6822 19.2634 -4.8768
				CHANNELS 3 Zrotation Xrotation Yrotation
				JOINT rshldr
				{
					OFFSET -8.7782 -1.9507 1.4630
					CHANNELS 3 Zrotation Xrotation Yrotation
					JOINT rforearm
					{
						OFFSET -28.1742 -1.7115 0.4877
						CHANNELS 3 Zrotation Xrotation Yrotation
						JOINT rhand
						{
							OFFSET -22.5879 0.7732 7.0714
							CHANNELS 3 Zrotation Xrotation Yrotation
							JOINT rthumb1
							{
								OFFSET -1.2192 -0.4879 3.4138
								CHANNELS 3 Zrotation Xrotation Yrotation
								JOINT rthumb2
								{
									OFFSET -3.3703 -0.5245 3.4138
									CHANNELS 3 Zrotation Xrotation Yrotation
									End Site
									{
										OFFSET -1.7827 -1.1821 1.4305
									}
								}
							}
							JOINT rindex1
							{
								OFFSET -7.7595 0.9383 5.6083
								CHANNELS 3 Zrotation Xrotation Yrotation
								JOINT rindex2
								{
									OFFSET -2.5406 -0.8842 1.5654
									CHANNELS 3 Zrotation Xrotation Yrotation
									End Site
									{
										OFFSET -1.6252 -0.2348 1.1650
									}
								}
							}
							JOINT rmid1
							{
								OFFSET -8.2471 1.1821 3.4138
								CHANNELS 3 Zrotation Xrotation Yrotation
								JOINT rmid2
								{
									OFFSET -3.1016 -0.5901 1.0647
									CHANNELS 3 Zrotation Xrotation Yrotation
									End Site
									{
										OFFSET -2.4855 -0.3289 0.8374
									}
								}
							}
							JOINT rring1
							{
								OFFSET -8.8282 0.5467 1.5168
								CHANNELS 3 Zrotation Xrotation Yrotation
								JOINT rring2
								{
									OFFSET -2.6093 -0.8198 -0.0198
									CHANNELS 3 Zrotation Xrotation Yrotation
									End Site
									{
										OFFSET -2.3384 -0.2941 0.1681
									}
								}
							}
							JOINT rpinky1
							{
								OFFSET -8.2720 -0.0478 -0.4584
								CHANNELS 3 Zrotation Xrotation Yrotation
								JOINT rpinky2
								{
									OFFSET -1.8273 -0.6474 -0.7010
									CHANNELS 3 Zrotation Xrotation Yrotation
									End Site
									{
										OFFSET -1.6923 -0.5177 -0.6072
									}
								}
							}
						}
					}
				}
			}
			JOINT lcollar
			{
				OFFSET 2.6822 19.2634 -4.8768
				CHANNELS 3 Zrotation Xrotation Yrotation
				JOINT lshldr
				{
					OFFSET 8.7782 -1.9507 1.4630
					CHANNELS 3 Zrotation Xrotation Yrotation
					JOINT lforearm
					{
						OFFSET 28.1742 -1.7115 0.4877
						CHANNELS 3 Zrotation Xrotation Yrotation
						JOINT lhand
						{
							OFFSET 22.5879 0.7732 7.0714
							CHANNELS 3 Zrotation Xrotation Yrotation
							JOINT lthumb1
							{
								OFFSET 1.2192 -0.4879 3.4138
								CHANNELS 3 Zrotation Xrotation Yrotation
								JOINT lthumb2
								{
									OFFSET 3.3703 -0.5245 3.4138
									CHANNELS 3 Zrotation Xrotation Yrotation
									End Site
									{
										OFFSET 1.7827 -1.1821 1.4305
									}
								}
							}
							JOINT lindex1
							{
								OFFSET 7.7595 0.9383 5.6083
								CHANNELS 3 Zrotation Xrotation Yrotation
								JOINT lindex2
								{
									OFFSET 2.5406 -0.8842 1.5654
									CHANNELS 3 Zrotation Xrotation Yrotation
									End Site
									{
										OFFSET 1.6252 -0.2348 1.1650
									}
								}
							}
							JOINT lmid1
							{
								OFFSET 8.2471 1.1821 3.4138
								CHANNELS 3 Zrotation Xrotation Yrotation
								JOINT lmid2
								{
									OFFSET 3.1016 -0.5901 1.0647
									CHANNELS 3 Zrotation Xrotation Yrotation
									End Site
									{
										OFFSET 2.4855 -0.3289 0.8374
									}
								}
							}
							JOINT lring1
							{
								OFFSET 8.8282 0.5467 1.5168
								CHANNELS 3 Zrotation Xrotation Yrotation
								JOINT lring2
								{
									OFFSET 2.6093 -0.8198 -0.0198
									CHANNELS 3 Zrotation Xrotation Yrotation
									End Site
									{
										OFFSET 2.3384 -0.2941 0.1681
									}
								}
							}
							JOINT lpinky1
							{
								OFFSET 8.2720 -0.0478 -0.4584
								CHANNELS 3 Zrotation Xrotation Yrotation
								JOINT lpinky2
								{
									OFFSET 1.8273 -0.6474 -0.7010
									CHANNELS 3 Zrotation Xrotation Yrotation
									End Site
									{
										OFFSET 1.6923 -0.5177 -0.6072
									}
								}
							}
						}
					}
				}
			}
		}
	}
	JOINT rbuttock
	{
		OFFSET -8.7782 4.3508 1.2192
		CHANNELS 3 Zrotation Xrotation Yrotation
		JOINT rthigh
		{
			OFFSET 0.0000 -1.7069 -2.1946
			CHANNELS 3 Zrotation Xrotation Yrotation
			JOINT rshin
			{
				OFFSET 0.0000 -36.8199 0.7315
				CHANNELS 3 Zrotation Xrotation Yrotation
				JOINT rfoot
				{
					OFFSET 0.7315 -45.1104 -5.1206
					CHANNELS 3 Zrotation Xrotation Yrotation
					End Site
					{
						OFFSET -1.1221 -3.6996 12.1030
					}
				}
			}
		}
	}
	JOINT lbuttock
	{
		OFFSET 8.7782 4.3508 1.2192
		CHANNELS 3 Zrotation Xrotation Yrotation
		JOINT lthigh
		{
			OFFSET 0.0000 -1.7069 -2.1946
			CHANNELS 3 Zrotation Xrotation Yrotation
			JOINT lshin
			{
				OFFSET 0.0000 -36.8199 0.7315
				CHANNELS 3 Zrotation Xrotation Yrotation
				JOINT lfoot
				{
					OFFSET -0.7315 -45.1104 -5.1206
					CHANNELS 3 Zrotation Xrotation Yrotation
					End Site
					{
						OFFSET 1.1221 -3.6996 12.1030
					}
				}
			}
		}
	}
}
MOTION
Frames: 6
Frame Time: 0.008333
89.417297 85.302902 -41.778500 0.000000 0.000000 0.000000 1.004460 -0.004840 0.027869 0.277299 -0.005379 0.048043 0.000000 -0.000000 -0.000000 0.000000 0.000000 -0.000000 -0.000000 0.000000 0.000000 -0.000000 0.000000 0.000000 0.000000 0.000000 0.000000 0.000000 0.000000 -0.000000 0.000000 -0.000000 -0.000000 0.000000 0.000000 -0.000000 0.000000 0.000000 -0.000000 0.000000 0.000000 -0.000000 0.000000 0.000000 -0.000000 7.730910 5.474880 0.417314 0.000000 0.000000 -0.000000 2.905540 0.965183 0.102902 0.000000 0.000000 -0.000000 10.278600 0.731801 0.025912 0.000000 0.000000 -0.000000 2.221670 -0.733487 -0.208920 0.000000 0.000000 -0.000000 0.000000 0.000000 -0.000000 0.000000 0.000000 -0.000000 0.000000 -0.000000 -0.000000 0.000000 0.000000 -0.000000 0.000000 0.000000 -0.000000 0.000000 0.000000 -0.000000 -7.730910 5.474880 -0.417314 0.000000 0.000000 -0.000000 -2.905540 0.965183 -0.102902 0.000000 0.000000 -0.000000 -10.278600 0.731801 -0.025912 0.000000 0.000000 -0.000000 -2.221670 -0.733487 0.208920 -0.000000 0.000000 -0.000000 1.244840 -5.506520 -0.110067 0.000300 4.419670 0.026948 -0.491959 1.086020 0.078040 0.000000 0.000000 0.000000 0.290209 -1.919030 0.012242 0.009108 -2.078580 0.075133 0.470799 3.996670 -0.134184
87.458008 82.997795 -49.831707 0.000000 0.000000 0.000000 0.000000 0.000000 0.000000 0.000000 0.000000 0.000000 0.000000 0.000000 0.000000 0.000000 0.000000 0.000000 0.000000 0.000000 0.000000 0.000000 0.000000 0.000000 0.000000 0.000000 0.000000 0.000000 0.000000 0.000000 0.000000 0.000000 0.000000 0.000000 0.000000 0.000000 0.000000 0.000000 0.000000 0.000000 0.000000 0.000000 0.000000 0.000000 0.000000 0.000000 0.000000 0.000000 0.000000 0.000000 0.000000 0.000000 0.000000 0.000000 0.000000 0.000000 0.000000 0.000000 0.000000 0.000000 0.000000 0.000000 0.000000 0.000000 0.000000 0.000000 0.000000 0.000000 0.000000 0.000000 0.000000 0.000000 0.000000 0.000000 0.000000 0.000000 0.000000 0.000000 0.000000 0.000000 0.000000 0.000000 0.000000 0.000000 0.000000 0.000000 0.000000 0.000000 0.000000 0.000000 0.000000 0.000000 0.000000 0.000000 0.000000 0.000000 0.000000 0.000000 0.000000 0.000000 0.000000 0.000000 0.000000 0.000000 0.000000 0.000000 0.000000 0.000000 0.000000 0.000000 0.000000 0.000000 0.000000 0.000000 0.000000 0.000000 0.000000 0.000000 0.000000 0.000000 0.000000 0.000000 0.000000 0.000000 0.000000 0.000000 0.000000 0.000000 0.000000 0.000000 0.000000 0.000000
87.514900 83.075897 -49.596401 0.000000 0.000000 0.000000 0.000000 0.000000 0.000000 0.000000 0.000000 0.000000 0.000000 0.000000 0.000000 0.000000 0.000000 0.000000 0.000000 0.000000 0.000000 0.000000 0.000000 0.000000 0.000000 0.000000 0.000000 0.000000 0.000000 0.000000 0.000000 0.000000 0.000000 0.000000 0.000000 0.000000 0.000000 0.000000 0.000000 0.000000 0.000000 0.000000 0.000000 0.000000 0.000000 0.000000 0.000000 0.000000 0.000000 0.000000 0.000000 0.000000 0.000000 0.000000 0.000000 0.000000 0.000000 0.000000 0.000000 0.000000 0.000000 0.000000 0.000000 0.000000 0.000000 0.000000 0.000000 0.000000 0.000000 0.000000 0.000000 0.000000 0.000000 0.000000 0.000000 0.000000 0.000000 0.000000 0.000000 0.000000 0.000000 0.000000 0.000000 0.000000 0.000000 0.000000 0.000000 0.000000 0.000000 0.000000 0.000000 0.000000 0.000000 0.000000 0.000000 0.000000 0.000000 0.000000 0.000000 0.000000 0.000000 0.000000 0.000000 0.000000 0.000000 0.000000 0.000000 0.000000 0.000000 0.000000 0.000000 0.000000 0.000000 0.000000 0.000000 0.000000 0.000000 0.000000 0.000000 0.000000 0.000000 0.000000 0.000000 0.000000 0.000000 0.000000 0.000000 0.000000 0.000000 0.000000 0.000000 0.000000
87.516800 83.292503 -49.093300 0.000000 0.000000 0.000000 0.000000 0.000000 0.000000 0.000000 0.000000 0.000000 0.000000 0.000000 0.000000 0.000000 0.000000 0.000000 0.000000 0.000000 0.000000 0.000000 0.000000 0.000000 0.000000 0.000000 0.000000 0.000000 0.000000 0.000000 0.000000 0.000000 0.000000 0.000000 0.000000 0.000000 0.000000 0.000000 0.000000 0.000000 0.000000 0.000000 0.000000 0.000000 0.000000 0.000000 0.000000 0.000000 0.000000 0.000000 0.000000 0.000000 0.000000 0.000000 0.000000 0.000000 0.000000 0.000000 0.000000 0.000000 0.000000 0.000000 0.000000 0.000000 0.000000 0.000000 0.000000 0.000000 0.000000 0.000000 0.000000 0.000000 0.000000 0.000000 0.000000 0.000000 0.000000 0.000000 0.000000 0.000000 0.000000 0.000000 0.000000 0.000000 0.000000 0.000000 0.000000 0.000000 0.000000 0.000000 0.000000 0.000000 0.000000 0.000000 0.000000 0.000000 0.000000 0.000000 0.000000 0.000000 0.000000 0.000000 0.000000 0.000000 0.000000 0.000000 0.000000 0.000000 0.000000 0.000000 0.000000 0.000000 0.000000 0.000000 0.000000 0.000000 0.000000 0.000000 0.000000 0.000000 0.000000 0.000000 0.000000 0.000000 0.000000 0.000000 0.000000 0.000000 0.000000 0.000000 0.000000 0.000000
87.514397 83.459396 -48.775902 0.000000 0.000000 0.000000 0.000000 0.000000 0.000000 0.000000 0.000000 0.000000 0.000000 0.000000 0.000000 0.000000 0.000000 0.000000 0.000000 0.000000 0.000000 0.000000 0.000000 0.000000 0.000000 0.000000 0.000000 0.000000 0.000000 0.000000 0.000000 0.000000 0.000000 0.000000 0.000000 0.000000 0.000000 0.000000 0.000000 0.000000 0.000000 0.000000 0.000000 0.000000 0.000000 0.000000 0.000000 0.000000 0.000000 0.000000 0.000000 0.000000 0.000000 0.000000 0.000000 0.000000 0.000000 0.000000 0.000000 0.000000 0.000000 0.000000 0.000000 0.000000 0.000000 0.000000 0.000000 0.000000 0.000000 0.000000 0.000000 0.000000 0.000000 0.000000 0.000000 0.000000 0.000000 0.000000 0.000000 0.000000 0.000000 0.000000 0.000000 0.000000 0.000000 0.000000 0.000000 0.000000 0.000000 0.000000 0.000000 0.000000 0.000000 0.000000 0.000000 0.000000 0.000000 0.000000 0.000000 0.000000 0.000000 0.000000 0.000000 0.000000 0.000000 0.000000 0.000000 0.000000 0.000000 0.000000 0.000000 0.000000 0.000000 0.000000 0.000000 0.000000 0.000000 0.000000 0.000000 0.000000 0.000000 0.000000 0.000000 0.000000 0.000000 0.000000 0.000000 0.000000 0.000000 0.000000 0.000000 0.000000
87.525398 83.593102 -48.421398 0.000000 0.000000 0.000000 0.000000 0.000000 0.000000 0.000000 0.000000 0.000000 0.000000 0.000000 0.000000 0.000000 0.000000 0.000000 0.000000 0.000000 0.000000 0.000000 0.000000 0.000000 0.000000 0.000000 0.000000 0.000000 0.000000 0.000000 0.000000 0.000000 0.000000 0.000000 0.000000 0.000000 0.000000 0.000000 0.000000 0.000000 0.000000 0.000000 0.000000 0.000000 0.000000 0.000000 0.000000 0.000000 0.000000 0.000000 0.000000 0.000000 0.000000 0.000000 0.000000 0.000000 0.000000 0.000000 0.000000 0.000000 0.000000 0.000000 0.000000 0.000000 0.000000 0.000000 0.000000 0.000000 0.000000 0.000000 0.000000 0.000000 0.000000 0.000000 0.000000 0.000000 0.000000 0.000000 0.000000 0.000000 0.000000 0.000000 0.000000 0.000000 0.000000 0.000000 0.000000 0.000000 0.000000 0.000000 0.000000 0.000000 0.000000 0.000000 0.000000 0.000000 0.000000 0.000000 0.000000 0.000000 0.000000 0.000000 0.000000 0.000000 0.000000 0.000000 0.000000 0.000000 0.000000 0.000000 0.000000 0.000000 0.000000 0.000000 0.000000 0.000000 0.000000 0.000000 0.000000 0.000000 0.000000 0.000000 0.000000 0.000000 0.000000 0.000000 0.000000 0.000000 0.000000 0.000000 0.000000 0.000000
